<?xml version="1.0" ?><svg enable-background="new 0 0 100 100" id="Livello_1" version="1.1" viewBox="0 0 100 100" xml:space="preserve" xmlns="http://www.w3.org/2000/svg" xmlns:xlink="http://www.w3.org/1999/xlink"><g><path d="M31.047,24.759c-3.514,0-6.373,2.858-6.373,6.371c0,3.514,2.859,6.373,6.373,6.373c3.513,0,6.37-2.859,6.37-6.373   C37.417,27.617,34.56,24.759,31.047,24.759z M31.047,36.503c-2.963,0-5.373-2.41-5.373-5.373c0-2.962,2.41-5.371,5.373-5.371   c2.961,0,5.37,2.409,5.37,5.371C36.417,34.093,34.008,36.503,31.047,36.503z"/><path d="M36.109,40.958H25.98c-0.276,0-0.5,0.224-0.5,0.5v32.587c0,0.276,0.224,0.5,0.5,0.5h10.129c0.276,0,0.5-0.224,0.5-0.5   V41.458C36.609,41.182,36.386,40.958,36.109,40.958z M35.609,73.545H26.48V41.958h9.129V73.545z"/><path d="M61.895,40.147c-4.406,0-7.533,2.101-9.219,4.285v-2.975c0-0.276-0.224-0.5-0.5-0.5h-9.714c-0.276,0-0.5,0.224-0.5,0.5   v32.587c0,0.276,0.224,0.5,0.5,0.5h10.12c0.276,0,0.5-0.224,0.5-0.5V57.924c0-4.086,0.676-7.866,5.578-7.866   c4.404,0,4.763,3.687,4.763,8.14v15.848c0,0.276,0.224,0.5,0.5,0.5h10.121c0.276,0,0.5-0.224,0.5-0.5V56.17   C74.544,47.849,73.012,40.147,61.895,40.147z M73.544,73.545h-9.121V58.197c0-3.64,0-9.14-5.763-9.14   c-5.83,0-6.578,4.738-6.578,8.866v15.621h-9.12V41.958h8.714v3.953c0,0.276,0.224,0.5,0.5,0.5h0.136   c0.186,0,0.355-0.103,0.442-0.267c1.216-2.306,4.339-4.997,9.141-4.997c9.668,0,11.649,6.006,11.649,15.022V73.545z"/><path d="M78.142,15.358H21.858c-3.584,0-6.5,2.916-6.5,6.5v56.283c0,3.584,2.916,6.5,6.5,6.5h56.283c3.584,0,6.5-2.916,6.5-6.5   V21.858C84.642,18.274,81.726,15.358,78.142,15.358z M83.642,78.142c0,3.032-2.468,5.5-5.5,5.5H21.858c-3.032,0-5.5-2.468-5.5-5.5   V21.858c0-3.032,2.468-5.5,5.5-5.5h56.283c3.032,0,5.5,2.468,5.5,5.5V78.142z"/></g></svg>